<svg xmlns="http://www.w3.org/2000/svg" xmlns:xlink="http://www.w3.org/1999/xlink" width="500" zoomAndPan="magnify" viewBox="0 0 375 374.999991" height="500" preserveAspectRatio="xMidYMid meet" version="1.0"><path fill="#0a65cc" d="M 187.511719 97.300781 C 189.503906 93.480469 190.613281 88.507812 190.808594 82.507812 C 190.273438 70.402344 186.832031 60.960938 180.578125 54.824219 C 174.476562 48.789062 167.023438 45.859375 157.804688 45.859375 C 153.289062 45.773438 149.167969 46.5625 145.476562 48.148438 C 141.992188 49.636719 139.042969 51.800781 136.4375 54.777344 C 133.839844 57.746094 131.765625 61.566406 130.261719 66.128906 C 128.726562 70.777344 127.941406 76.382812 127.941406 82.78125 C 127.941406 88.5625 128.921875 93.367188 130.851562 97.066406 C 132.796875 100.816406 135.234375 103.859375 138.09375 106.113281 C 141.054688 108.414062 144.160156 110.023438 147.550781 110.992188 C 156.082031 113.425781 162.523438 112.746094 169.6875 111.050781 C 173.507812 110.132812 177.007812 108.527344 180.0625 106.289062 C 183.085938 104.085938 185.511719 101.140625 187.511719 97.300781 " fill-opacity="1" fill-rule="nonzero"/><path fill="#0a65cc" d="M 278.832031 263.582031 L 328.921875 314.074219 L 311.867188 330.988281 L 261.769531 280.519531 L 239.683594 354.976562 L 162.925781 163.867188 L 353.4375 242.070312 Z M 156.917969 130.378906 C 151.503906 130.378906 145.957031 129.464844 140.457031 127.671875 C 134.804688 125.828125 129.625 122.929688 125.097656 119.046875 C 120.546875 115.175781 116.777344 110.160156 113.933594 104.148438 C 111.089844 98.121094 109.65625 90.933594 109.65625 82.78125 C 109.65625 74.710938 110.75 67.242188 112.929688 60.597656 C 115.121094 53.898438 118.300781 48.035156 122.386719 43.167969 C 126.574219 38.230469 131.664062 34.402344 137.542969 31.761719 C 149.207031 26.503906 164.863281 26.535156 177.460938 31.636719 C 183.816406 34.183594 189.398438 37.917969 194.058594 42.738281 C 198.703125 47.558594 202.367188 53.402344 204.976562 60.117188 C 207.570312 66.878906 208.8125 74.460938 208.65625 82.652344 C 208.65625 82.683594 208.65625 82.832031 208.65625 82.867188 C 208.328125 91.164062 206.605469 98.421875 203.53125 104.453125 C 200.4375 110.480469 196.429688 115.492188 191.632812 119.332031 C 186.855469 123.160156 181.339844 125.996094 175.257812 127.769531 C 169.363281 129.496094 163.191406 130.378906 156.917969 130.378906 Z M 105.648438 39.375 C 105.542969 39.839844 105.375 40.285156 105.152344 40.691406 C 104.042969 43.113281 101.902344 44.769531 99.257812 45.183594 C 98.070312 45.378906 96.402344 45.503906 94.273438 45.523438 C 94.15625 47.601562 94.078125 49.597656 94.039062 51.539062 C 93.949219 54.902344 93.90625 58.222656 93.90625 61.535156 C 93.90625 63.203125 93.9375 64.863281 93.988281 66.53125 L 94.039062 86.628906 C 94.039062 88.382812 93.988281 90.1875 93.90625 92.050781 C 93.75 98.515625 92.785156 104.285156 91.050781 109.121094 C 89.289062 114.03125 86.992188 118.179688 84.253906 121.441406 C 81.371094 124.851562 78.042969 127.414062 74.351562 129.054688 C 70.6875 130.671875 66.929688 131.492188 63.199219 131.492188 C 59.796875 131.492188 56.246094 131.023438 52.632812 130.105469 C 48.652344 129.105469 44.933594 127.125 41.621094 124.21875 C 38.28125 121.28125 35.566406 117.183594 33.558594 112.039062 C 31.578125 107.058594 30.570312 100.585938 30.570312 92.839844 C 30.570312 86.597656 34.601562 83.804688 38.609375 83.804688 C 41.648438 83.804688 43.578125 84.941406 44.660156 85.894531 C 46.226562 87.292969 47.179688 89.3125 47.597656 92.097656 C 47.648438 98.285156 48.222656 102.523438 49.371094 105.433594 C 50.453125 108.175781 51.703125 110.203125 53.117188 111.441406 C 54.472656 112.65625 55.84375 113.394531 57.34375 113.699219 C 61.949219 114.664062 65.601562 114.558594 68.289062 112.867188 C 69.828125 111.894531 71.222656 110.109375 72.421875 107.570312 C 73.839844 104.601562 74.941406 100.582031 75.683594 95.613281 C 76.464844 90.4375 76.859375 83.902344 76.859375 76.179688 C 76.859375 72.375 76.777344 68.585938 76.636719 64.859375 C 76.492188 60.996094 76.398438 56.875 76.398438 52.484375 C 76.398438 50.507812 76.429688 48.484375 76.480469 46.425781 L 76.492188 45.90625 L 73.3125 45.863281 C 69.734375 45.863281 67.636719 44.214844 66.527344 42.828125 C 65.171875 41.191406 64.4375 39.21875 64.4375 37.164062 C 64.4375 33.03125 67.152344 29.976562 71.691406 28.980469 C 74.210938 28.414062 77.953125 28.140625 83.09375 28.140625 C 85.664062 28.140625 88.050781 28.152344 90.226562 28.191406 C 92.617188 28.234375 94.703125 28.382812 96.488281 28.636719 C 98.773438 28.949219 100.613281 29.527344 102.089844 30.410156 C 104.488281 31.78125 105.898438 34.175781 105.898438 36.945312 C 105.898438 37.804688 105.816406 38.621094 105.648438 39.375 Z M 222.917969 110.828125 C 223.410156 104.625 223.789062 98.363281 224.0625 92.050781 C 224.386719 84.3125 224.574219 76.636719 224.574219 69.027344 L 224.515625 57.160156 C 224.480469 54.863281 224.417969 52.457031 224.308594 49.953125 C 223.464844 49.546875 222.667969 49 221.945312 48.316406 C 220.226562 46.679688 219.300781 44.550781 219.300781 42.199219 C 219.300781 40.152344 220.085938 38.203125 221.636719 36.40625 C 222.863281 35.011719 224.574219 33.890625 226.855469 32.976562 C 227.011719 32.894531 227.15625 32.824219 227.308594 32.757812 C 240.136719 27.460938 255.007812 26.097656 267.855469 29.230469 C 272.566406 30.363281 276.804688 32.152344 280.445312 34.539062 C 284.253906 37.0625 287.335938 40.332031 289.628906 44.253906 C 291.976562 48.308594 293.148438 53.097656 293.148438 58.515625 C 293.148438 61.234375 292.589844 63.976562 291.507812 66.664062 C 290.503906 69.128906 289.078125 71.554688 287.269531 73.859375 C 285.625 75.972656 283.679688 77.933594 281.460938 79.6875 C 283.539062 81.417969 285.363281 83.378906 286.886719 85.535156 C 288.46875 87.867188 289.667969 90.25 290.492188 92.691406 C 291.375 95.304688 291.820312 97.984375 291.820312 100.667969 C 291.820312 103.796875 291.453125 106.675781 290.75 109.226562 C 289.957031 111.886719 288.835938 114.210938 287.398438 116.210938 C 286.054688 118.136719 284.304688 119.921875 282.21875 121.492188 C 280.367188 122.878906 278.238281 124.195312 275.816406 125.453125 C 273.464844 126.675781 269.96875 127.503906 264.820312 128.058594 C 258.566406 128.742188 249.160156 129.027344 240.839844 128.6875 C 239.691406 128.65625 238.554688 128.609375 237.421875 128.550781 C 237.160156 128.804688 236.886719 129.046875 236.585938 129.261719 C 234.710938 130.660156 232.382812 130.820312 230.808594 130.820312 C 228.210938 130.820312 226.046875 129.929688 224.546875 128.355469 C 224.230469 128.34375 223.917969 128.300781 223.605469 128.226562 C 221.167969 127.644531 219.300781 126.539062 218.085938 124.933594 C 216.910156 123.421875 216.273438 121.46875 216.273438 119.328125 C 216.273438 115.179688 218.742188 112.050781 222.917969 110.828125 Z M 361.046875 223.535156 L 292.308594 195.320312 C 311.046875 183.757812 323.652344 163.214844 323.652344 139.582031 L 323.652344 65.625 C 323.652344 29.371094 294.269531 -0.015625 258.011719 -0.015625 L 65.714844 -0.015625 C 29.460938 -0.015625 0.0742188 29.371094 0.0742188 65.625 L 0.0742188 139.582031 C 0.0742188 175.832031 29.460938 205.222656 65.714844 205.222656 L 157.945312 205.222656 L 221.089844 362.445312 C 224.152344 370.066406 231.53125 375.011719 239.679688 375.011719 C 239.992188 375.011719 240.308594 375.007812 240.621094 374.992188 C 249.136719 374.59375 256.46875 368.851562 258.898438 360.675781 L 271.367188 318.628906 L 297.648438 345.105469 C 301.5625 349.050781 306.714844 351.027344 311.867188 351.027344 C 316.96875 351.027344 322.074219 349.089844 325.976562 345.214844 L 343.03125 328.296875 C 350.886719 320.507812 350.9375 307.816406 343.144531 299.960938 L 316.867188 273.46875 L 358.988281 261.324219 C 367.179688 258.964844 372.980469 251.675781 373.445312 243.160156 C 373.910156 234.648438 368.933594 226.773438 361.046875 223.535156 " fill-opacity="1" fill-rule="nonzero"/><path fill="#0a65cc" d="M 241.949219 92.863281 C 241.710938 99.019531 241.269531 105.398438 240.617188 111.878906 C 247.753906 112.121094 253.976562 111.914062 259.402344 111.285156 C 263.027344 110.855469 266.144531 110.117188 268.664062 109.101562 C 270.804688 108.234375 272.460938 107.117188 273.570312 105.789062 C 274.441406 104.738281 274.863281 103.355469 274.863281 101.558594 C 274.863281 96.960938 273.296875 93.972656 269.773438 91.894531 C 265.523438 89.382812 259.417969 88.035156 251.613281 87.898438 L 247.125 87.898438 C 245.222656 87.898438 243.542969 87.511719 242.152344 86.808594 C 242.09375 88.832031 242.023438 90.84375 241.949219 92.863281 " fill-opacity="1" fill-rule="nonzero"/><path fill="#0a65cc" d="M 269.550781 48.140625 C 267.203125 46.820312 264.5 45.828125 261.5 45.191406 C 255.777344 43.992188 249.554688 43.886719 244.660156 44.824219 C 243.761719 45 242.902344 45.203125 242.066406 45.429688 C 242.171875 48.746094 242.246094 52.050781 242.296875 55.359375 C 242.363281 59.90625 242.402344 64.460938 242.402344 69.027344 C 242.402344 69.878906 242.402344 70.738281 242.402344 71.59375 C 242.691406 71.480469 242.992188 71.378906 243.292969 71.292969 C 245.011719 70.832031 247.324219 70.609375 250.363281 70.609375 L 254.171875 70.609375 C 257 70.609375 259.886719 70.289062 262.753906 69.667969 C 265.523438 69.066406 268.011719 68.15625 270.140625 66.992188 C 272.09375 65.910156 273.699219 64.570312 274.902344 63.011719 C 275.867188 61.765625 276.308594 60.335938 276.308594 58.515625 C 276.308594 56.1875 275.761719 54.277344 274.640625 52.679688 C 273.332031 50.800781 271.679688 49.320312 269.550781 48.140625 " fill-opacity="1" fill-rule="nonzero"/></svg>